<?xml version="1.0" encoding="UTF-8" standalone="no"?>
<svg
   xmlns:dc="http://purl.org/dc/elements/1.1/"
   xmlns:cc="http://creativecommons.org/ns#"
   xmlns:rdf="http://www.w3.org/1999/02/22-rdf-syntax-ns#"
   xmlns:svg="http://www.w3.org/2000/svg"
   xmlns="http://www.w3.org/2000/svg"
   id="svg4"
   version="1.1"
   focusable="false"
   data-supported-dps="34x34"
   height="34"
   width="34">
  <metadata
     id="metadata10">
    <rdf:RDF>
      <cc:Work
         rdf:about="">
        <dc:format>image/svg+xml</dc:format>
        <dc:type
           rdf:resource="http://purl.org/dc/dcmitype/StillImage" />
        <dc:title></dc:title>
      </cc:Work>
    </rdf:RDF>
  </metadata>
  <defs
     id="defs8" />
  <path
     id="path2"
     fill-rule="evenodd"
     transform="scale(.7083)"
     fill="#FFFFFF"
     class="background"
     d="M0 4.01A4.01 4.01 0 014.01 0h39.98A4.01 4.01 0 0148 4.01v39.98A4.01 4.01 0 0143.99 48H4.01A4.01 4.01 0 010 43.99V4.01zM19 18.3h6.5v3.266C26.437 19.688 28.838 18 32.445 18 39.359 18 41 21.738 41 28.597V41.3h-7V30.159c0-3.906-.937-6.109-3.32-6.109-3.305 0-4.68 2.375-4.68 6.109V41.3h-7v-23zM7 41h7V18H7v23zm8-30.5a4.5 4.5 0 11-9 0 4.5 4.5 0 019 0z" />
</svg>
