<?xml version="1.0" encoding="UTF-8" standalone="no"?>
<svg
   xmlns:dc="http://purl.org/dc/elements/1.1/"
   xmlns:cc="http://creativecommons.org/ns#"
   xmlns:rdf="http://www.w3.org/1999/02/22-rdf-syntax-ns#"
   xmlns:svg="http://www.w3.org/2000/svg"
   xmlns="http://www.w3.org/2000/svg"
   height="29.215542"
   width="29.901104"
   id="svg4"
   version="1.1"
   enable-background="new 0 0 50 50"
   viewBox="0 0 29.901104 29.215542">
  <metadata
     id="metadata10">
    <rdf:RDF>
      <cc:Work
         rdf:about="">
        <dc:format>image/svg+xml</dc:format>
        <dc:type
           rdf:resource="http://purl.org/dc/dcmitype/StillImage" />
        <dc:title></dc:title>
      </cc:Work>
    </rdf:RDF>
  </metadata>
  <defs
     id="defs8" />
  <path
     id="path2"
     d="M 15,0 C 6.6999995,0 0,6.7 0,15 c 0,6.6 4.2999995,12.2 10.3,14.2 0.8,0.1 1,-0.3 1,-0.7 v -2.6 c -4.2000005,0.9 -5.1000005,-2 -5.1000005,-2 -0.7,-1.7 -1.7,-2.2 -1.7,-2.2 -1.4,-0.9 0.1,-0.9 0.1,-0.9 1.5,0.1 2.3,1.5 2.3,1.5 1.3,2.3 3.5000005,1.6 4.4000005,1.2 0.1,-1 0.5,-1.6 1,-2 -3.3000005,-0.4 -6.8000005,-1.7 -6.8000005,-7.4 0,-1.6 0.6,-3 1.5,-4 -0.2,-0.4 -0.7,-1.9 0.1,-4 0,0 1.3,-0.4 4.0999995,1.5 1.2,-0.3 2.5,-0.5 3.800001,-0.5 1.299999,0 2.6,0.2 3.799999,0.5 2.9,-1.9 4.1,-1.5 4.1,-1.5 0.8,2.1 0.3,3.6 0.100001,4 1,1 1.5,2.4 1.5,4 0,5.8 -3.5,7 -6.8,7.4 0.5,0.5 1,1.4 1,2.8 v 4.1 c 0,0.4 0.3,0.9 1,0.7 6,-2 10.199999,-7.6 10.199999,-14.2 C 30,6.7 23.299999,0 15,0 Z"
     fill="#ffffff"
     clip-rule="evenodd"
     fill-rule="evenodd" />
</svg>
