<?xml version="1.0" standalone="no"?>
<!DOCTYPE svg PUBLIC "-//W3C//DTD SVG 20010904//EN"
 "http://www.w3.org/TR/2001/REC-SVG-20010904/DTD/svg10.dtd">
<svg version="1.0" xmlns="http://www.w3.org/2000/svg"
 width="1024.000000pt" height="1024.000000pt" viewBox="0 0 1024.000000 1024.000000"
 preserveAspectRatio="xMidYMid meet">
<metadata>
Created by potrace 1.11, written by Peter Selinger 2001-2013
</metadata>
<g transform="translate(0.000000,1024.000000) scale(0.100000,-0.100000)"
fill="#000000" stroke="none">
<path d="M0 5120 l0 -5120 5120 0 5120 0 0 5120 0 5120 -5120 0 -5120 0 0
-5120z m4240 3161 l0 -88 -202 -6 c-237 -7 -326 -24 -448 -87 -133 -70 -216
-172 -250 -305 -44 -176 -42 -125 -50 -2220 -5 -1447 -10 -2020 -19 -2100 -63
-576 -176 -908 -416 -1230 -79 -107 -291 -316 -392 -388 -247 -176 -490 -254
-818 -264 -378 -11 -626 71 -829 273 -158 158 -228 331 -211 528 17 203 98
326 269 407 81 39 154 52 256 47 98 -5 184 -39 257 -102 61 -54 143 -182 224
-352 142 -300 159 -332 198 -372 56 -58 108 -82 176 -82 72 0 113 18 174 75
93 87 135 177 168 362 17 92 18 254 18 2598 0 2647 0 2643 -46 2824 -35 137
-120 227 -292 306 -127 59 -217 76 -429 82 l-188 6 0 88 0 89 1425 0 1425 0 0
-89z m3085 79 c790 -51 1263 -224 1658 -609 262 -254 415 -527 487 -866 27
-126 38 -423 21 -574 -34 -313 -124 -571 -280 -803 -291 -431 -706 -676 -1304
-770 -123 -19 -182 -22 -447 -23 -189 0 -347 5 -415 13 -180 21 -381 52 -540
83 -82 16 -153 29 -157 29 -12 0 -9 -1946 2 -2151 24 -438 90 -582 314 -688
122 -59 199 -73 434 -79 l202 -5 0 -88 0 -89 -1425 0 -1425 0 0 89 0 88 203 6
c306 9 442 52 573 182 76 75 111 142 135 258 39 191 40 314 37 2792 -4 2224
-5 2398 -22 2499 -33 208 -76 304 -167 378 -144 116 -309 158 -619 158 l-140
0 0 90 0 90 1358 0 c813 0 1421 -4 1517 -10z"/>
<path d="M6800 7974 c-84 -11 -292 -47 -372 -66 l-88 -20 0 -1377 0 -1378 124
-22 c332 -58 402 -65 646 -65 211 0 243 2 313 22 226 63 370 147 543 317 279
275 398 564 411 999 7 217 -5 342 -48 518 -85 349 -263 641 -498 819 -83 62
-251 148 -358 183 -159 53 -254 67 -453 71 -102 2 -201 1 -220 -1z"/>
</g>
</svg>
